<?xml version="1.0" standalone="no"?>
<!DOCTYPE svg PUBLIC "-//W3C//DTD SVG 20010904//EN"
 "http://www.w3.org/TR/2001/REC-SVG-20010904/DTD/svg10.dtd">
<svg version="1.0" xmlns="http://www.w3.org/2000/svg"
 width="16.000000pt" height="16.000000pt" viewBox="0 0 16.000000 16.000000"
 preserveAspectRatio="xMidYMid meet">
<metadata>
Created by potrace 1.11, written by Peter Selinger 2001-2013
</metadata>
<g transform="translate(0.000000,16.000000) scale(0.017204,-0.017204)"
fill="#000000" stroke="none">
<path d="M164 906 c-66 -30 -119 -86 -144 -152 -18 -49 -20 -77 -19 -299 1
-225 2 -248 21 -287 30 -61 58 -96 98 -121 70 -43 94 -47 356 -47 l251 0 59
30 c39 20 71 46 94 77 l35 46 3 298 c3 279 2 301 -17 336 -25 50 -66 87 -126
117 -49 24 -55 25 -305 25 -244 -1 -257 -2 -306 -23z m584 -80 c47 -24 80 -62
91 -103 6 -22 11 -136 11 -263 -1 -281 -10 -314 -98 -356 -32 -15 -69 -18
-272 -19 -251 -1 -291 4 -339 48 -47 44 -52 71 -52 330 0 140 4 253 10 269 17
45 76 96 122 105 22 4 143 7 268 7 188 -1 233 -4 259 -18z"/>
<path d="M672 745 c-24 -30 -19 -60 14 -82 31 -20 67 -10 82 22 16 35 15 42
-8 65 -27 27 -64 25 -88 -5z"/>
<path d="M369 660 c-11 -31 -27 -38 -46 -19 -15 15 -50 2 -63 -22 -8 -14 -7
-25 5 -43 15 -23 15 -25 -5 -36 -12 -6 -28 -9 -36 -6 -11 4 -14 -4 -14 -34 0
-35 3 -39 35 -50 38 -13 43 -21 20 -40 -21 -18 -19 -33 9 -59 23 -22 26 -22
47 -7 26 18 49 6 49 -25 0 -11 7 -19 18 -20 9 -1 24 -2 32 -3 18 -1 44 30 36
43 -10 16 25 21 40 6 21 -20 27 -19 54 10 21 22 22 27 10 50 -15 28 -8 41 25
47 15 2 20 12 22 41 3 36 -5 44 -40 38 -15 -2 -19 31 -7 54 11 21 10 26 -15
49 -25 24 -30 25 -45 11 -24 -22 -34 -19 -46 13 -8 21 -18 28 -43 30 -27 2
-33 -2 -42 -28z m99 -120 c42 -47 9 -120 -55 -120 -41 0 -81 38 -77 72 1 13 3
26 3 30 1 4 11 16 23 28 30 27 77 23 106 -10z"/>
<path d="M620 435 c-7 -8 -10 -25 -6 -40 6 -25 0 -30 -31 -26 -8 1 -13 -10
-13 -27 0 -23 5 -31 25 -36 21 -5 24 -11 19 -31 -4 -16 0 -30 11 -41 15 -16
18 -16 38 4 l21 22 23 -21 c20 -20 23 -20 38 -5 11 11 15 25 11 41 -5 20 -2
26 19 31 35 9 35 51 0 64 -21 8 -24 14 -19 38 5 24 2 30 -15 35 -11 3 -25 -1
-32 -9 -15 -18 -33 -18 -49 1 -16 19 -24 19 -40 0z m100 -100 c0 -15 -7 -26
-20 -30 -41 -13 -70 43 -33 64 25 13 53 -5 53 -34z"/>
</g>
</svg>
