<?xml version="1.0" standalone="no"?>
<!DOCTYPE svg PUBLIC "-//W3C//DTD SVG 20010904//EN"
 "http://www.w3.org/TR/2001/REC-SVG-20010904/DTD/svg10.dtd">
<svg version="1.0" xmlns="http://www.w3.org/2000/svg"
 width="542.000000pt" height="542.000000pt" viewBox="0 0 542.000000 542.000000"
 preserveAspectRatio="xMidYMid meet">
<metadata>
Created by potrace 1.11, written by Peter Selinger 2001-2013
</metadata>
<g transform="translate(0.000000,542.000000) scale(0.100000,-0.100000)"
fill="#000000" stroke="none">
<path d="M1150 5223 c-26 -5 -77 -37 -98 -63 -58 -70 -62 -157 -12 -275 8 -18
28 -75 147 -420 19 -55 40 -116 47 -135 7 -19 21 -57 30 -85 9 -27 49 -140 88
-250 38 -110 74 -211 78 -225 5 -14 36 -104 70 -200 34 -96 70 -201 81 -233
12 -31 19 -61 17 -66 -2 -4 -38 -46 -81 -92 -103 -112 -209 -257 -251 -346
-25 -54 -40 -73 -58 -77 -154 -32 -215 -54 -302 -110 -213 -136 -336 -360
-337 -611 0 -106 1 -115 26 -204 58 -203 204 -373 396 -460 63 -28 120 -47
168 -54 20 -3 35 -25 80 -113 56 -107 139 -239 190 -298 192 -222 357 -357
578 -470 l71 -37 -1 -104 -2 -105 712 0 712 0 3 106 3 107 85 45 c237 125 452
310 603 520 63 87 158 251 178 306 10 27 20 37 43 41 183 36 365 153 465 299
47 68 96 180 115 261 15 70 16 242 2 310 -18 82 -76 211 -124 275 -52 70 -153
160 -224 200 -72 39 -203 86 -263 92 -26 3 -36 14 -75 83 -81 142 -148 232
-279 375 -28 30 -50 62 -51 70 0 9 18 67 41 130 22 63 51 147 64 185 13 39 42
122 65 185 23 63 68 192 100 285 96 282 151 439 160 460 5 11 34 94 65 185 31
91 65 190 76 219 35 96 24 175 -35 239 -83 93 -257 72 -315 -37 -6 -11 -47
-123 -91 -248 -44 -125 -84 -235 -89 -243 -5 -9 -20 -56 -35 -105 -15 -50 -31
-99 -36 -110 -5 -11 -26 -67 -46 -125 -20 -58 -67 -195 -106 -305 -38 -110
-89 -258 -114 -330 -24 -71 -48 -133 -52 -137 -4 -4 -37 8 -72 26 -89 46 -246
104 -360 132 -146 36 -254 48 -420 48 -105 0 -256 -10 -269 -19 -4 -2 -22 -6
-41 -9 -60 -10 -80 -15 -174 -42 -50 -14 -97 -30 -103 -36 -7 -6 -13 -8 -13
-5 0 7 -91 -32 -169 -72 -34 -18 -64 -31 -66 -29 -2 2 -24 64 -50 138 -26 74
-60 173 -77 220 -16 47 -79 227 -139 400 -61 173 -141 403 -179 510 -37 107
-78 226 -91 263 -45 134 -135 193 -259 170z"/>
</g>
</svg>
